<?xml version="1.0" encoding="UTF-8"?>
<svg id="Layer_2" xmlns="http://www.w3.org/2000/svg" version="1.1" viewBox="0 0 50 50">
  <!-- Generator: Adobe Illustrator 29.2.1, SVG Export Plug-In . SVG Version: 2.1.0 Build 116)  -->
  <defs>
    <style>
      .st0 {
        fill: #fff;
      }
    </style>
  </defs>
  <path class="st0" d="M26.74,28.1s2.75-2.09,3.05-7.74c.07-1.3-.21-2.59-.84-3.73-1.13-2.02-2.89-2.8-2.89-2.8l-.35-.92s8.43.75,8.43,7.97-7.39,7.21-7.39,7.21Z"/>
  <path class="st0" d="M25.71,12.91h-13.19c-.08,0-.14.06-.14.14h0c0,.08.06.14.14.14h13.3l-.1-.27Z"/>
  <path class="st0" d="M11.28,38.08L23.2,6.3l3.24,8.52c1.13,2.97,1.21,6.23.24,9.25l-.56,1.76c-.03.09-.16.1-.19,0l-4.92-12.95-9.09,24.5c-.6,1.63.6,3.36,2.34,3.36h0s.07.03.07.07v.04s-.03.07-.07.07h-7.16s-.07-.03-.07-.07h0s.03-.07.07-.07h.35c1.72-.02,3.24-1.1,3.85-2.7Z"/>
  <path class="st0" d="M15.01,29.06h11.63c4.51,0,8.46,3.14,9.38,7.55.01.06.02.11.03.16.56,2.97,3.48,8.57,6.82,3.63.04-.05.12-.01.1.05-.38.97-1.75,3.34-5.91,3.23-5.35-.15-5.58-8.19-8.54-12.14-.97-1.29-2.49-2.03-4.1-2.03h-9.61l.2-.47Z"/>
</svg>